<svg width="120" height="120" viewBox="0 0 120 120" fill="none" xmlns="http://www.w3.org/2000/svg">
<path d="M26.9183 47.9051C29.3285 46.9177 31.9742 46.7334 34.4896 47.3778C36.8523 47.9831 38.9907 49.2912 40.645 51.1376C40.8243 51.3377 40.8012 51.6438 40.6014 51.8232L37.6776 54.4489C37.4857 54.6212 37.1955 54.6177 36.995 54.4555C35.7931 53.4834 34.2632 52.9003 32.597 52.9003C28.7313 52.9004 25.5972 56.0345 25.597 59.9003C25.597 63.7662 28.7311 66.9001 32.597 66.9003C34.4169 66.9003 36.0732 66.2044 37.3178 65.0657C37.5148 64.8856 37.817 64.8699 38.0186 65.0448L41.6484 68.1953C41.8465 68.3672 41.8788 68.6637 41.7155 68.869C40.3022 70.6453 38.8057 71.7118 36.5 72.5005C34.0392 73.3421 30.2922 73.2174 27.8167 72.4237C25.3412 71.6299 23.1642 70.0554 21.5862 67.9188C20.0084 65.7821 19.1079 63.1881 19.0091 60.496C18.9104 57.8039 19.6178 55.1459 21.0345 52.8905C22.4514 50.6349 24.5079 48.8927 26.9183 47.9051Z" fill="#94A3B8"/>
<path d="M86.1206 47.905C88.5309 46.9175 91.1766 46.7332 93.6919 47.3776C96.0547 47.983 98.1931 49.2911 99.8474 51.1374C100.027 51.3375 100.004 51.6436 99.8037 51.8231L96.8799 54.4487C96.6881 54.621 96.3978 54.6175 96.1973 54.4553C94.9954 53.4832 93.4655 52.9001 91.7993 52.9001C87.9336 52.9002 84.7995 56.0344 84.7993 59.9001C84.7993 63.766 87.9335 66.8999 91.7993 66.9001C93.6193 66.9001 95.2755 66.2043 96.5202 65.0656C96.7171 64.8854 97.0193 64.8697 97.2209 65.0446L100.851 68.1951C101.049 68.3671 101.081 68.6635 100.918 68.8688C99.5045 70.6451 98.0081 71.7116 95.7023 72.5003C93.2415 73.3419 89.4945 73.2173 87.019 72.4235C84.5435 71.6298 82.3665 70.0553 80.7886 67.9186C79.2107 65.7819 78.3102 63.1879 78.2114 60.4958C78.1127 57.8037 78.8201 55.1457 80.2368 52.8903C81.6537 50.6348 83.7103 48.8925 86.1206 47.905Z" fill="#94A3B8"/>
<path d="M46.019 48.5063C45.8698 48.1753 46.1118 47.8007 46.4748 47.8007H52.1677C52.3688 47.8007 52.5504 47.9212 52.6285 48.1065L59.3545 64.069C59.5951 64.6399 60.4041 64.6399 60.6447 64.069L67.3707 48.1065C67.4488 47.9212 67.6304 47.8007 67.8315 47.8007H73.7211C74.0852 47.8007 74.3272 48.1775 74.1758 48.5087L64.5783 69.4902C62.7921 73.395 57.2392 73.3804 55.4736 69.4662L46.019 48.5063Z" fill="#94A3B8"/>
<path d="M33.0001 40.5009C59.0001 8.50041 90.0001 24.5002 91.5001 42.5C91.5001 42.5 90.0001 43.5004 89.5001 42.0015C85.5001 32.5002 71.0001 13 38.5001 42.5002C36.9906 43.8702 33.0001 40.5009 33.0001 40.5009Z" fill="#94A3B8"/>
<path d="M85.3238 79.5195C59.3238 111.52 28.3238 95.5202 26.8238 77.5204C26.8238 77.5204 28.3238 76.52 28.8238 78.0189C32.8238 87.5202 47.3238 107.02 79.8238 77.5202C81.3332 76.1502 85.3238 79.5195 85.3238 79.5195Z" fill="#94A3B8"/>
</svg>
