<svg width="120" height="120" viewBox="0 0 120 120" fill="none" xmlns="http://www.w3.org/2000/svg">
<path d="M67.0002 27.5C67.0002 32.1944 63.1946 36 58.5002 36C53.8058 36 50.0002 32.1944 50.0002 27.5C50.0002 22.8056 53.8058 19 58.5002 19C63.1946 19 67.0002 22.8056 67.0002 27.5Z" fill="#94A3B8"/>
<path d="M86.0002 34C86.0002 38.4183 82.6423 42 78.5002 42C74.3581 42 71.0002 38.4183 71.0002 34C71.0002 29.5817 74.3581 26 78.5002 26C82.6423 26 86.0002 29.5817 86.0002 34Z" fill="#94A3B8"/>
<path d="M97.801 50.9023C97.801 55.0445 94.667 58.4023 90.801 58.4023C86.935 58.4023 83.801 55.0445 83.801 50.9023C83.801 46.7602 86.935 43.4023 90.801 43.4023C94.667 43.4023 97.801 46.7602 97.801 50.9023Z" fill="#94A3B8"/>
<path d="M96.801 72.5C96.801 76.0899 94.1147 79 90.801 79C87.4873 79 84.801 76.0899 84.801 72.5C84.801 68.9101 87.4873 66 90.801 66C94.1147 66 96.801 68.9101 96.801 72.5Z" fill="#94A3B8"/>
<path d="M84.0998 89.3027C84.0998 92.6164 81.6374 95.3027 78.5998 95.3027C75.5622 95.3027 73.0998 92.6164 73.0998 89.3027C73.0998 85.989 75.5622 83.3027 78.5998 83.3027C81.6374 83.3027 84.0998 85.989 84.0998 89.3027Z" fill="#94A3B8"/>
<path d="M63.299 95.8008C63.299 98.5622 61.0605 100.801 58.299 100.801C55.5376 100.801 53.299 98.5622 53.299 95.8008C53.299 93.0394 55.5376 90.8008 58.299 90.8008C61.0605 90.8008 63.299 93.0394 63.299 95.8008Z" fill="#94A3B8"/>
<path d="M62.3037 44.776C62.3037 47.3585 60.1542 49.452 57.5025 49.452C54.8509 49.452 52.7014 47.3585 52.7014 44.776C52.7014 42.1935 54.8509 40.1 57.5025 40.1C60.1542 40.1 62.3037 42.1935 62.3037 44.776Z" fill="#94A3B8"/>
<path d="M73.0358 48.3518C73.0358 50.7823 71.1391 52.7527 68.7994 52.7527C66.4598 52.7527 64.5631 50.7823 64.5631 48.3518C64.5631 45.9212 66.4598 43.9508 68.7994 43.9508C71.1391 43.9508 73.0358 45.9212 73.0358 48.3518Z" fill="#94A3B8"/>
<path d="M79.7014 57.65C79.7014 59.9287 77.9311 61.7759 75.7475 61.7759C73.5638 61.7759 71.7935 59.9287 71.7935 57.65C71.7935 55.3714 73.5638 53.5241 75.7475 53.5241C77.9311 53.5241 79.7014 55.3714 79.7014 57.65Z" fill="#94A3B8"/>
<path d="M79.1365 69.5313C79.1365 71.5061 77.6192 73.107 75.7475 73.107C73.8757 73.107 72.3584 71.5061 72.3584 69.5313C72.3584 67.5564 73.8757 65.9555 75.7475 65.9555C77.6192 65.9555 79.1365 67.5564 79.1365 69.5313Z" fill="#94A3B8"/>
<path d="M71.9623 78.7747C71.9623 80.5977 70.5714 82.0754 68.8557 82.0754C67.1399 82.0754 65.7491 80.5977 65.7491 78.7747C65.7491 76.9518 67.1399 75.474 68.8557 75.474C70.5714 75.474 71.9623 76.9518 71.9623 78.7747Z" fill="#94A3B8"/>
<path d="M60.2131 82.3494C60.2131 83.8685 58.9487 85.1 57.3889 85.1C55.8291 85.1 54.5647 83.8685 54.5647 82.3494C54.5647 80.8303 55.8291 79.5988 57.3889 79.5988C58.9487 79.5988 60.2131 80.8303 60.2131 82.3494Z" fill="#94A3B8"/>
<path d="M59.6663 55.2771C59.6663 56.4248 58.711 57.3553 57.5325 57.3553C56.354 57.3553 55.3986 56.4248 55.3986 55.2771C55.3986 54.1293 56.354 53.1988 57.5325 53.1988C58.711 53.1988 59.6663 54.1293 59.6663 55.2771Z" fill="#94A3B8"/>
<path d="M64.4361 56.8663C64.4361 57.9465 63.5932 58.8222 62.5533 58.8222C61.5135 58.8222 60.6705 57.9465 60.6705 56.8663C60.6705 55.786 61.5135 54.9103 62.5533 54.9103C63.5932 54.9103 64.4361 55.786 64.4361 56.8663Z" fill="#94A3B8"/>
<path d="M67.3986 60.9988C67.3986 62.0116 66.6119 62.8326 65.6413 62.8326C64.6708 62.8326 63.884 62.0116 63.884 60.9988C63.884 59.9861 64.6708 59.1651 65.6413 59.1651C66.6119 59.1651 67.3986 59.9861 67.3986 60.9988Z" fill="#94A3B8"/>
<path d="M67.1476 66.2794C67.1476 67.1571 66.4732 67.8686 65.6413 67.8686C64.8095 67.8686 64.1351 67.1571 64.1351 66.2794C64.1351 65.4017 64.8095 64.6902 65.6413 64.6902C66.4732 64.6902 67.1476 65.4017 67.1476 66.2794Z" fill="#94A3B8"/>
<path d="M63.9591 70.3876C63.9591 71.1978 63.3409 71.8546 62.5783 71.8546C61.8158 71.8546 61.1976 71.1978 61.1976 70.3876C61.1976 69.5774 61.8158 68.9206 62.5783 68.9206C63.3409 68.9206 63.9591 69.5774 63.9591 70.3876Z" fill="#94A3B8"/>
<path d="M58.7372 71.9763C58.7372 72.6515 58.1752 73.1988 57.482 73.1988C56.7888 73.1988 56.2268 72.6515 56.2268 71.9763C56.2268 71.3012 56.7888 70.7539 57.482 70.7539C58.1752 70.7539 58.7372 71.3012 58.7372 71.9763Z" fill="#94A3B8"/>
<path d="M33.6111 89.2283C33.6111 86.7032 35.6014 84.6562 38.0566 84.6562C40.5118 84.6562 42.5022 86.7032 42.5022 89.2283C42.5022 91.7534 40.5118 93.8004 38.0566 93.8004C35.6014 93.8004 33.6111 91.7534 33.6111 89.2283Z" fill="#94A3B8"/>
<path d="M22.2021 72.3404C22.2021 70.1123 23.8412 68.6062 25.8632 68.6062C27.8851 68.6062 29.5242 70.1123 29.5242 72.3404C29.5242 74.5684 27.8851 76.2746 25.8632 76.2746C23.8412 76.2746 22.2021 74.5684 22.2021 72.3404Z" fill="#94A3B8"/>
<path d="M22.6679 50.6851C22.6679 48.9027 24.2558 47.6577 25.8444 47.6577C27.4331 47.6577 28.921 48.9027 28.921 50.6851C28.921 52.4675 27.4331 53.9125 25.8444 53.9125C24.2558 53.9125 22.6679 52.4675 22.6679 50.6851Z" fill="#94A3B8"/>
<path d="M35.5468 33.8899C35.5468 32.4045 36.6176 31.4004 38.0618 31.4004C39.5061 31.4004 40.6769 32.4045 40.6769 33.8899C40.6769 35.3752 39.5061 36.4793 38.0618 36.4793C36.6176 36.4793 35.5468 35.3752 35.5468 33.8899Z" fill="#94A3B8"/>
<path d="M43.844 79.0367C43.844 77.6204 45.0206 76.4722 46.4719 76.4722C47.9233 76.4722 49.0998 77.6204 49.0998 79.0367C49.0998 80.453 47.9233 81.6012 46.4719 81.6012C45.0206 81.6012 43.844 80.453 43.844 79.0367Z" fill="#94A3B8"/>
<path d="M37.0998 69.5643C37.0998 68.3146 38.0687 67.4698 39.264 67.4698C40.4592 67.4698 41.4281 68.3146 41.4281 69.5643C41.4281 70.814 40.4592 71.771 39.264 71.771C38.0687 71.771 37.0998 70.814 37.0998 69.5643Z" fill="#94A3B8"/>
<path d="M37.3751 57.4179C37.3751 56.4182 38.3138 55.7199 39.2529 55.7199C40.192 55.7199 41.0715 56.4182 41.0715 57.4179C41.0715 58.4177 40.192 59.2281 39.2529 59.2281C38.3138 59.2281 37.3751 58.4177 37.3751 57.4179Z" fill="#94A3B8"/>
<path d="M44.9883 47.9975C44.9883 47.1644 45.6213 46.6012 46.475 46.6012C47.3287 46.6012 48.0208 47.1644 48.0208 47.9975C48.0208 48.8306 47.3287 49.4499 46.475 49.4499C45.6213 49.4499 44.9883 48.8306 44.9883 47.9975Z" fill="#94A3B8"/>
<path d="M51.4115 70.7017C51.4115 70.0947 51.9017 69.6027 52.5064 69.6027C53.1111 69.6027 53.6014 70.0947 53.6014 70.7017C53.6014 71.3087 53.1111 71.8008 52.5064 71.8008C51.9017 71.8008 51.4115 71.3087 51.4115 70.7017Z" fill="#94A3B8"/>
<path d="M48.6014 66.6421C48.6014 66.1065 49.0051 65.7445 49.5031 65.7445C50.0011 65.7445 50.4048 66.1065 50.4048 66.6421C50.4048 67.1777 50.0011 67.5878 49.5031 67.5878C49.0051 67.5878 48.6014 67.1777 48.6014 66.6421Z" fill="#94A3B8"/>
<path d="M48.7161 61.4365C48.7161 61.0081 49.1072 60.7088 49.4985 60.7088C49.8898 60.7088 50.2563 61.0081 50.2563 61.4365C50.2563 61.865 49.8898 62.2123 49.4985 62.2123C49.1072 62.2123 48.7161 61.865 48.7161 61.4365Z" fill="#94A3B8"/>
<path d="M51.8882 57.3992C51.8882 57.0422 52.152 56.8008 52.5077 56.8008C52.8634 56.8008 53.1518 57.0422 53.1518 57.3992C53.1518 57.7563 52.8634 58.0217 52.5077 58.0217C52.152 58.0217 51.8882 57.7563 51.8882 57.3992Z" fill="#94A3B8"/>
</svg>
