<svg width="120" height="120" viewBox="0 0 120 120" fill="none" xmlns="http://www.w3.org/2000/svg">
<path d="M75.9773 39.6859H60.9602L44.9002 74.1002L79.3144 58.0402V43.023C79.3144 41.18 77.8203 39.6859 75.9773 39.6859Z" fill="#94A3B8"/>
<path fill-rule="evenodd" clip-rule="evenodd" d="M96 59.5C96 79.6583 79.6583 96 59.4999 96C39.3416 96 23 79.6583 23 59.5C23 39.3416 39.3416 23 59.4999 23H79.3141C88.5293 23 96 30.4704 96 39.6857V59.5ZM59.4999 86.8226C74.5899 86.8226 86.8226 74.5899 86.8226 59.5V39.6857C86.8226 35.5388 83.4609 32.1771 79.3141 32.1771H59.4999C44.41 32.1771 32.1771 44.41 32.1771 59.5C32.1771 74.5899 44.41 86.8226 59.4999 86.8226Z" fill="#94A3B8"/>
</svg>
