<svg width="120" height="120" viewBox="0 0 120 120" fill="none" xmlns="http://www.w3.org/2000/svg">
<path fill-rule="evenodd" clip-rule="evenodd" d="M91.6027 25H61.2478C59.9351 25 58.8569 26.0708 58.8569 27.3745V54.122C58.8569 57.288 55.9503 59.9884 52.5749 59.9884H29.4161C28.4316 59.9884 27.5878 60.5471 27.1893 61.4549C26.8143 62.3628 27.0018 63.3638 27.705 64.0622L58.1537 94.3016C58.6225 94.7672 59.185 95 59.8414 95H88.2977C89.2821 95 90.126 94.4413 90.5245 93.5334C90.8995 92.6255 90.712 91.6245 90.0088 90.9262L60.1226 61.2687L59.5601 60.71L58.8334 60.0116H59.0444C77.4683 59.8952 92.6575 45.5786 93.9936 27.584C94.0405 26.9089 93.8295 26.2803 93.3607 25.7915C92.8919 25.2561 92.3059 25 91.6027 25Z" fill="#94A3B8"/>
</svg>
