<svg width="120" height="120" viewBox="0 0 120 120" fill="none" xmlns="http://www.w3.org/2000/svg">
<path d="M36.0006 77H13.8547C12.7183 77 11.6739 77.6473 11.1776 78.6696C6.00396 89.3279 6.07205 92.5 7.50055 92.5L47.5006 91.5C52.5008 91.5 54.0008 80 53.0006 77L39.336 47.8489C38.7143 46.5226 39.6822 45 41.1469 45H50.0006C51.6574 45 53.0844 46.4613 54.2059 47.6809C54.8993 48.4349 55.8595 49 57.0006 49C58.3751 49 59.3779 48.1253 60.0465 47.1274C60.8127 45.9837 61.9665 45 63.3431 45H64.0006C65.0006 45 66.0006 43.5 66.0006 39.5C66.0006 36.7551 59.6236 35.2855 55.0748 34.7127C53.83 34.5559 52.8239 33.6517 52.0954 32.6303C50.9053 30.9619 49.0046 30 47.5006 30H29.7326C28.4078 30 27.2399 30.869 26.8592 32.138L23.3493 43.8376C23.1256 44.5832 23.2005 45.3865 23.5581 46.0779L37.6652 73.3517C37.8856 73.7777 38.0006 74.2503 38.0006 74.7299V75C38.0006 76.1046 37.1051 77 36.0006 77Z" fill="#94A3B8"/>
<path d="M93.0003 92C96.5796 92 98.3664 84.7243 99.1154 79.7343C99.3759 77.9986 97.995 76.5 96.2399 76.5H80.7751C79.41 76.5 78.4461 75.1626 78.8778 73.8675L88.0326 46.403C88.3105 45.5693 89.1001 45.0146 89.9787 45.0361L109 45.5C112.204 45.5 113.697 37.6967 114.25 32.6198C114.435 30.9218 113.075 29.5 111.367 29.5H80.1571C78.8684 29.5 77.7238 30.323 77.3133 31.5445L58.3293 88.0445C57.6762 89.9884 59.1224 92 61.1731 92H93.0003Z" fill="#94A3B8"/>
</svg>
