<svg width="120" height="120" viewBox="0 0 120 120" fill="none" xmlns="http://www.w3.org/2000/svg">
<path d="M95.1094 35.1699C96.3191 36.8773 97.407 38.6767 98.3613 40.5557C85.839 45.0981 61.1375 58.3239 64.9883 102.71C63.3557 102.899 61.6957 102.999 60.0127 102.999C61 97.5 61 91 60.0935 84.5C61.4118 67.1692 67.9214 46.6438 95.1094 35.1699Z" fill="#94A3B8"/>
<path d="M87.3984 26.8584C88.974 28.1624 90.4554 29.5763 91.8301 31.0889C77.3145 38.0971 50.6343 51.1697 54.9893 102.707C53.4711 102.531 51.9774 102.276 50.5117 101.946C50.4058 97.3177 51.5 91.5 50.2949 86.8779C50.684 66.8319 55.5491 43.188 87.3984 26.8584Z" fill="#94A3B8"/>
<path d="M100.333 45.0645C102.056 49.7169 103 54.7481 103 60C103 80.325 88.8975 97.3531 69.9443 101.841C70 97.5 70.5 92 69.9867 86.7612C71.7175 70.5907 79.3417 52.5177 100.333 45.0645Z" fill="#94A3B8"/>
<path d="M60 17C68.1278 17 75.7281 19.2563 82.2109 23.1748C66.7046 32.1569 40.6572 45.8 45.3838 100.45C28.8309 94.4679 17 78.6164 17 60C17 36.2518 36.2518 17 60 17Z" fill="#94A3B8"/>
<path d="M19.5 45C48 55 52 84.5 50 102.5C51.6 103.3 54 103.167 55 103C59 58.2 34 45 21.5 40.5C20.7 41.3 19.8333 43.8333 19.5 45Z" fill="#2A2A2A"/>
<path d="M24.4996 35C62.9996 51 60.4996 85 59.9996 103C61.4996 103.5 63.8585 103.189 64.9996 103C69.4967 51.033 42.5339 38.0165 28.0273 31.0134L27.9996 31C27.0867 31.907 25.4996 33.5 24.4996 35Z" fill="#2A2A2A"/>
<path d="M32.4998 26.7998C72.9998 47.5 69.9998 80 69.5 102C71.4998 102 73.4998 101.5 74.5998 100.8C79.4998 45.5 52.9998 32 37.4998 23C35.4998 24 33.4998 25.5 32.4998 26.7998Z" fill="#2A2A2A"/>
</svg>
